<svg width="29" height="29" viewBox="0 0 29 29" fill="none" xmlns="http://www.w3.org/2000/svg">
<path d="M14.1382 27.32C6.96249 27.32 1.1651 21.5725 1.1651 14.5067C1.1651 7.4409 6.96249 1.69336 14.1382 1.69336C21.3139 1.69336 27.1113 7.4409 27.1113 14.5067C27.1113 21.5725 21.3139 27.32 14.1382 27.32Z" stroke="#B40F0F" stroke-width="2"/>
<path fill-rule="evenodd" clip-rule="evenodd" d="M18.3727 10.3206C17.9829 9.9353 17.351 9.9353 16.9612 10.3206L14.1382 13.1113L11.3152 10.3206C10.9254 9.9353 10.2934 9.9353 9.90366 10.3206C9.51388 10.7059 9.51388 11.3307 9.90366 11.716L12.7267 14.5067L9.90366 17.2974C9.51388 17.6827 9.51388 18.3074 9.90366 18.6928C10.2934 19.0781 10.9254 19.0781 11.3152 18.6928L14.1382 15.9021L16.9612 18.6928C17.351 19.0781 17.9829 19.0781 18.3727 18.6928C18.7625 18.3074 18.7625 17.6827 18.3727 17.2974L15.5497 14.5067L18.3727 11.716C18.7625 11.3307 18.7625 10.7059 18.3727 10.3206Z" fill="#B40F0F"/>
</svg>
