<svg id="Group_3323" data-name="Group 3323" xmlns="http://www.w3.org/2000/svg" width="21.656" height="18.849" viewBox="0 0 21.656 18.849">
  <path id="Path_374" data-name="Path 374" d="M13.622,43.449a12.013,12.013,0,0,1-5.606-1.358L4.84,43.1a.85.85,0,0,1-.921-.265.838.838,0,0,1-.1-.944L5,39.714a8.661,8.661,0,0,1-2.2-5.692A8.8,8.8,0,0,1,6,27.334,11.638,11.638,0,0,1,13.628,24.6a11.649,11.649,0,0,1,7.629,2.734,8.589,8.589,0,0,1,0,13.375A11.62,11.62,0,0,1,13.622,43.449ZM8.08,40.893a.573.573,0,0,1,.286.075A10.8,10.8,0,0,0,13.622,42.3c5.327,0,9.657-3.706,9.657-8.265s-4.336-8.265-9.657-8.265-9.657,3.7-9.657,8.259a7.576,7.576,0,0,0,2.168,5.214.568.568,0,0,1,.07.7L5.213,41.78l2.657-.852A.616.616,0,0,1,8.08,40.893Z" transform="translate(-2.8 -24.6)" fill="#fff"/>
</svg>
