<svg xmlns="http://www.w3.org/2000/svg" width="26" height="22" viewBox="0 0 26 22">
  <path id="heart-outline" d="M13,21.593C6.9,16.054,1.083,11.3,1.083,7.191,1.083,3.4,4.407,2,6.8,2c1.421,0,4.5.5,6.2,4.457,1.722-3.968,4.836-4.447,6.2-4.447,2.752,0,5.713,1.621,5.713,5.181,0,4.069-5.564,8.625-11.917,14.4M19.2,1.01A7.225,7.225,0,0,0,13,4.248,7.212,7.212,0,0,0,6.8,1C3.356,1,0,3.187,0,7.191,0,11.852,6.035,16.62,13,23c6.966-6.38,13-11.148,13-15.809C26,3.18,22.647,1.01,19.2,1.01" transform="translate(0 -1)" fill="#fff" fill-rule="evenodd"/>
</svg>
