<svg xmlns="http://www.w3.org/2000/svg" width="46.278" height="50" viewBox="0 0 46.278 50">
  <path id="share-svgrepo-com_1_" data-name="share-svgrepo-com (1)" d="M45.3,31.133a9.417,9.417,0,0,0-7.257,3.415l-11.266-6.4a9.413,9.413,0,0,0,0-6.3l11.265-6.4a9.423,9.423,0,1,0-1.632-2.869l-11.265,6.4a9.433,9.433,0,1,0,0,12.038l11.266,6.4a9.432,9.432,0,1,0,8.89-6.283ZM45.3,3.3A6.133,6.133,0,1,1,39.17,9.433,6.138,6.138,0,0,1,45.3,3.3ZM17.891,31.133A6.132,6.132,0,1,1,24.022,25,6.14,6.14,0,0,1,17.891,31.133ZM45.3,46.7a6.133,6.133,0,1,1,6.131-6.132A6.139,6.139,0,0,1,45.3,46.7Z" transform="translate(-8.456)" fill="#fff"/>
</svg>
